<svg width="140" height="80" viewBox="0 0 140 80" fill="none" xmlns="http://www.w3.org/2000/svg">
<path d="M46.2762 20L50.9887 2.41455C51.2115 1.58203 50.9722 0.849609 50.4259 0.415039C50.0964 0.153809 49.6551 0 49.1357 0H33.4301C32.0495 0 30.6402 1.08154 30.2831 2.41455L25.5712 20H7.36686C5.98564 20 4.57695 21.0815 4.21928 22.4146L0.0725516 37.8931C-0.111164 38.5767 0.0640067 39.187 0.485149 39.5728C0.779339 39.8413 1.19377 40 1.68937 40H20.2129L13.3776 65.5103C11.2334 73.5132 16.2109 80 24.4952 80H50.9063L56.2652 60H35.5596L40.9185 40H61.6241L66.983 20H46.2762Z" fill="#F8FBFA"/>
<path d="M134.92 77.5854C134.563 78.9185 133.154 80 131.773 80H72.1569L77.5158 60H98.2214L103.58 40H82.8747L88.2336 20H114.645C122.929 20 127.906 26.4868 125.762 34.4897L118.927 60H137.132C138.513 60 139.343 61.0815 138.985 62.4146L134.92 77.5854Z" fill="#F8FBFA"/>
</svg>
