<svg width="380" height="65" viewBox="0 0 380 65" fill="none" xmlns="http://www.w3.org/2000/svg">
<path fill-rule="evenodd" clip-rule="evenodd" d="M360.834 49.8089L374.18 0H380L366.654 49.8089H360.834ZM334.627 50.805C330.993 50.805 327.973 50.0698 325.568 48.5992C323.212 47.1287 321.604 45.0651 320.744 42.4087C319.946 39.7048 320.036 36.5265 321.015 32.8738L321.263 31.9488C322.229 28.3436 323.835 25.189 326.082 22.4851C328.378 19.7812 331.099 17.694 334.243 16.2234C337.436 14.7529 340.85 14.0176 344.484 14.0176C348.118 14.0176 351.113 14.7529 353.469 16.2234C355.875 17.694 357.476 19.7812 358.274 22.4851C359.121 25.189 359.062 28.3436 358.096 31.9488L357.848 32.8738C356.869 36.5265 355.232 39.7048 352.936 42.4087C350.702 45.0651 347.988 47.1287 344.794 48.5992C341.65 50.0698 338.261 50.805 334.627 50.805ZM335.981 45.753C339.811 45.753 343.167 44.5908 346.049 42.2664C348.993 39.8945 350.999 36.7162 352.066 32.7315L352.238 32.0911C353.306 28.1064 352.997 24.9519 351.312 22.6274C349.688 20.2556 346.961 19.0697 343.13 19.0697C339.349 19.0697 335.986 20.2556 333.042 22.6274C330.111 24.9519 328.112 28.1064 327.044 32.0911L326.873 32.7315C325.805 36.7162 326.108 39.8945 327.78 42.2664C329.466 44.5908 332.199 45.753 335.981 45.753ZM284.616 48.6704C287.034 50.0935 289.986 50.805 293.473 50.805C296.911 50.805 299.998 50.1883 302.735 48.955C305.521 47.7216 307.899 46.085 309.87 44.0453C311.841 42.0055 313.401 39.8471 314.552 37.5701L309.13 36.3605C307.976 39.0169 306.2 41.2465 303.802 43.0491C301.453 44.8517 298.486 45.753 294.9 45.753C292.494 45.753 290.473 45.2312 288.837 44.1876C287.251 43.144 286.153 41.6497 285.545 39.7048C284.986 37.7598 285.068 35.4354 285.793 32.7315L285.964 32.0911C286.689 29.3872 287.852 27.0628 289.453 25.1179C291.104 23.173 293.002 21.6787 295.148 20.6351C297.343 19.5915 299.644 19.0697 302.05 19.0697C304.408 19.0697 306.282 19.4966 307.674 20.3505C309.066 21.2043 310.013 22.3428 310.516 23.7659C311.067 25.189 311.237 26.7545 311.025 28.4622L317.003 27.3237C317.233 24.9993 316.909 22.8172 316.031 20.7774C315.203 18.7376 313.726 17.101 311.601 15.8677C309.525 14.6343 306.768 14.0176 303.33 14.0176C299.843 14.0176 296.503 14.7529 293.31 16.2234C290.178 17.6466 287.44 19.7101 285.095 22.414C282.812 25.0705 281.168 28.2724 280.164 32.02L279.954 32.8027C278.963 36.5028 278.89 39.7048 279.737 42.4087C280.634 45.1126 282.26 47.1998 284.616 48.6704ZM250.955 50.805C247.321 50.805 244.301 50.0698 241.896 48.5992C239.54 47.1287 237.932 45.0651 237.072 42.4087C236.274 39.7048 236.364 36.5265 237.343 32.8738L237.591 31.9488C238.557 28.3436 240.163 25.189 242.41 22.4851C244.706 19.7812 247.427 17.694 250.571 16.2234C253.764 14.7529 257.178 14.0176 260.812 14.0176C264.446 14.0176 267.441 14.7529 269.798 16.2234C272.203 17.694 273.804 19.7812 274.602 22.4851C275.449 25.189 275.39 28.3436 274.424 31.9488L274.176 32.8738C273.197 36.5265 271.56 39.7048 269.264 42.4087C267.03 45.0651 264.316 47.1287 261.122 48.5992C257.978 50.0698 254.589 50.805 250.955 50.805ZM252.309 45.753C256.139 45.753 259.495 44.5908 262.377 42.2664C265.321 39.8945 267.327 36.7162 268.394 32.7315L268.566 32.0911C269.634 28.1064 269.325 24.9519 267.64 22.6274C266.016 20.2556 263.289 19.0697 259.458 19.0697C255.677 19.0697 252.314 20.2556 249.371 22.6274C246.44 24.9519 244.44 28.1064 243.372 32.0911L243.201 32.7315C242.133 36.7162 242.436 39.8945 244.108 42.2664C245.794 44.5908 248.527 45.753 252.309 45.753ZM213.842 48.1716C214.68 49.2627 216.13 49.8082 218.192 49.8082H227.769L229.065 44.9697H221.036C219.611 44.9697 219.09 44.2581 219.471 42.835L225.611 19.9229H237.397L238.713 15.0132H226.926L230.244 2.63212H224.424L221.107 15.0132H210.278L208.962 19.9229H219.791L213.423 43.6889C212.915 45.5863 213.054 47.0806 213.842 48.1716ZM180.162 50.805C176.528 50.805 173.508 50.0698 171.103 48.5992C168.747 47.1287 167.139 45.0651 166.279 42.4087C165.481 39.7048 165.572 36.5265 166.55 32.8738L166.798 31.9488C167.764 28.3436 169.371 25.189 171.618 22.4851C173.914 19.7812 176.634 17.694 179.778 16.2234C182.971 14.7529 186.385 14.0176 190.019 14.0176C193.653 14.0176 196.649 14.7529 199.005 16.2234C201.41 17.694 203.012 19.7812 203.809 22.4851C204.657 25.189 204.597 28.3436 203.631 31.9488L203.383 32.8738C202.404 36.5265 200.767 39.7048 198.471 42.4087C196.237 45.0651 193.523 47.1287 190.33 48.5992C187.185 50.0698 183.796 50.805 180.162 50.805ZM181.516 45.753C185.346 45.753 188.703 44.5908 191.585 42.2664C194.528 39.8945 196.534 36.7162 197.602 32.7315L197.773 32.0911C198.841 28.1064 198.532 24.9519 196.847 22.6274C195.223 20.2556 192.496 19.0697 188.666 19.0697C184.884 19.0697 181.521 20.2556 178.578 22.6274C175.647 24.9519 173.647 28.1064 172.58 32.0911L172.408 32.7315C171.34 36.7162 171.643 39.8945 173.315 42.2664C175.001 44.5908 177.734 45.753 181.516 45.753ZM149.577 15.0143L140.254 49.8094H146.073L151.755 28.605C152.543 25.6639 153.907 23.5056 155.847 22.1299C157.849 20.7068 160.152 19.9952 162.754 19.9952H167.395L168.768 14.872H164.496C162.335 14.872 160.496 15.2278 158.979 15.9394C157.463 16.6509 156.182 17.7657 155.137 19.2837H154.105L155.249 15.0143H149.577ZM91.979 64.04L105.116 15.0138H110.788L109.243 20.7774H110.275C111.678 19.0222 113.595 17.4568 116.027 16.0811C118.507 14.7055 121.613 14.0176 125.346 14.0176C128.44 14.0176 131.067 14.7529 133.226 16.2234C135.448 17.6466 136.964 19.6863 137.775 22.3428C138.634 24.9993 138.562 28.2013 137.558 31.9488L137.31 32.8738C136.319 36.5739 134.699 39.7759 132.453 42.4798C130.206 45.1837 127.59 47.2473 124.606 48.6704C121.671 50.0935 118.632 50.805 115.489 50.805C112.984 50.805 110.937 50.473 109.347 49.8089C107.793 49.1922 106.61 48.3857 105.796 47.3896C104.983 46.3934 104.421 45.3735 104.111 44.3299H103.08L97.7986 64.04H91.979ZM115.276 45.8241C119.009 45.8241 122.334 44.6857 125.252 42.4087C128.233 40.0843 130.275 36.8586 131.381 32.7315L131.553 32.0911C132.659 27.9641 132.338 24.7621 130.591 22.4851C128.906 20.1607 126.197 18.9985 122.464 18.9985C118.781 18.9985 115.425 20.1607 112.395 22.4851C109.428 24.7621 107.391 27.9641 106.286 32.0911L106.114 32.7315C105.008 36.8586 105.323 40.0843 107.057 42.4087C108.853 44.6857 111.593 45.8241 115.276 45.8241ZM30.2912 3.46484L27.4916 13.912H39.7931L36.6095 25.7935H24.3088L21.1252 37.6751H33.4259L30.2423 49.5566H14.552C9.6305 49.5566 6.67353 45.7029 7.94733 40.9486L12.008 25.7935H1.00362C0.70919 25.7935 0.462988 25.6992 0.288216 25.5397C0.0380249 25.3105 -0.0660402 24.9479 0.0431013 24.5418L2.50658 15.3464C2.71906 14.5545 3.55593 13.912 4.37649 13.912H15.1913L17.9905 3.46484C18.2026 2.67293 19.0399 2.03041 19.8601 2.03041H29.1904C29.499 2.03041 29.7611 2.12179 29.9569 2.27698C30.2814 2.53515 30.4236 2.97026 30.2912 3.46484ZM78.2834 49.5566C79.1036 49.5566 79.9408 48.9141 80.1529 48.1222L82.5678 39.1095C82.7803 38.3176 82.2875 37.6751 81.467 37.6751H70.6518L74.7125 22.52C75.9863 17.7656 73.0294 13.912 68.1078 13.912H52.4176L49.234 25.7935H61.5347L58.3511 37.6751H46.0504L42.8668 49.5566H78.2834Z" fill="#252C2B"/>
</svg>
