<svg width="256" height="146" viewBox="0 0 256 146" fill="none" xmlns="http://www.w3.org/2000/svg">
<path fill-rule="evenodd" clip-rule="evenodd" d="M60.0813 0C58.2654 0 56.6772 1.22363 56.2139 2.97949L47.5 36H13.4744C11.2651 36 9.01074 37.7295 8.4392 39.8633L0.684808 68.8027C0.113031 70.9365 1.44042 72.667 3.64965 72.667H37.6096L24.1716 122.817C20.7412 135.62 28.7053 146 41.96 146H93.8801L103.705 109.333H65.7449L75.5696 72.667H113.53L123.354 36H85.5L93.675 5.02051C94.3445 2.4834 92.4314 0 89.8076 0H60.0813ZM247.755 142.137C247.183 144.271 244.929 146 242.72 146H132.84L142.665 109.333H180.625L190.449 72.667H152.489L162.314 36H214.234C227.489 36 235.453 46.3799 232.022 59.1826L218.584 109.333H252.544C254.754 109.333 256.081 111.063 255.509 113.197L247.755 142.137Z" fill="black"/>
</svg>
